<svg xmlns="http://www.w3.org/2000/svg" xmlns:xlink="http://www.w3.org/1999/xlink" width="500" zoomAndPan="magnify" viewBox="0 0 375 374.999991" height="500" preserveAspectRatio="xMidYMid meet" version="1.0"><defs><clipPath id="53a1bd8563"><path d="M 18.75 109 L 259 109 L 259 307.476562 L 18.75 307.476562 Z M 18.75 109 " clip-rule="nonzero"/></clipPath><clipPath id="c85acde544"><path d="M 20 67.476562 L 174 67.476562 L 174 187 L 20 187 Z M 20 67.476562 " clip-rule="nonzero"/></clipPath><clipPath id="c5fe743112"><path d="M 116 67.476562 L 329 67.476562 L 329 259 L 116 259 Z M 116 67.476562 " clip-rule="nonzero"/></clipPath><clipPath id="0affd58c94"><path d="M 201 80 L 356.25 80 L 356.25 307.476562 L 201 307.476562 Z M 201 80 " clip-rule="nonzero"/></clipPath></defs><g clip-path="url(#53a1bd8563)"><path fill="#5e17eb" d="M 20.164062 168.972656 C 19.234375 174.992188 18.75 181.160156 18.75 187.4375 C 18.75 253.652344 72.4375 307.328125 138.664062 307.328125 C 204.886719 307.328125 258.574219 253.652344 258.574219 187.4375 C 258.574219 160.734375 249.839844 136.070312 235.078125 116.148438 C 220.707031 116.394531 207.371094 120.914062 196.265625 128.480469 C 211.589844 143.449219 221.113281 164.324219 221.113281 187.4375 C 221.113281 232.964844 184.199219 269.871094 138.664062 269.871094 C 93.128906 269.871094 56.214844 232.964844 56.214844 187.4375 C 56.214844 151.355469 79.40625 120.699219 111.699219 109.527344 C 70.875 109.527344 35.765625 133.949219 20.164062 168.972656 " fill-opacity="1" fill-rule="nonzero"/></g><g clip-path="url(#c85acde544)"><path fill="#ff5757" d="M 111.699219 109.527344 C 102.164062 139.183594 101.628906 165.148438 105.3125 186.742188 C 105.472656 155.777344 116.441406 127.328125 134.617188 104.960938 C 135.101562 104.371094 135.585938 103.785156 136.074219 103.207031 C 136.296875 102.945312 136.515625 102.679688 136.738281 102.417969 C 137.222656 101.855469 137.710938 101.292969 138.207031 100.738281 C 138.4375 100.476562 138.667969 100.214844 138.90625 99.953125 C 139.40625 99.398438 139.90625 98.847656 140.417969 98.300781 C 140.648438 98.050781 140.882812 97.800781 141.113281 97.554688 C 141.636719 97 142.167969 96.449219 142.699219 95.902344 C 142.917969 95.683594 143.136719 95.464844 143.355469 95.246094 C 143.917969 94.679688 144.480469 94.113281 145.054688 93.558594 C 145.226562 93.386719 145.410156 93.21875 145.585938 93.046875 C 146.210938 92.449219 146.832031 91.851562 147.46875 91.265625 C 147.554688 91.1875 147.644531 91.109375 147.730469 91.03125 C 155.460938 83.929688 164.035156 77.738281 173.296875 72.632812 C 162.332031 69.328125 150.707031 67.546875 138.664062 67.546875 C 78.714844 67.546875 29.046875 111.527344 20.164062 168.972656 C 35.765625 133.949219 70.875 109.527344 111.699219 109.527344 " fill-opacity="1" fill-rule="nonzero"/></g><g clip-path="url(#c5fe743112)"><path fill="#ff3131" d="M 116.425781 187.4375 C 116.425781 214.140625 125.15625 238.796875 139.921875 258.722656 C 154.289062 258.472656 167.628906 253.964844 178.730469 246.390625 C 163.410156 231.425781 153.886719 210.546875 153.886719 187.4375 C 153.886719 141.910156 190.800781 105.003906 236.335938 105.003906 C 281.871094 105.003906 318.785156 141.910156 318.785156 187.4375 C 318.785156 204.410156 313.648438 220.171875 304.847656 233.28125 C 330.140625 201.03125 336.605469 155.992188 317.738281 116.511719 C 310.882812 102.171875 301.355469 89.976562 290.042969 80.222656 C 273.886719 72.113281 255.644531 67.546875 236.335938 67.546875 C 170.109375 67.546875 116.425781 121.222656 116.425781 187.4375 " fill-opacity="1" fill-rule="nonzero"/></g><g clip-path="url(#0affd58c94)"><path fill="#421817" d="M 317.738281 116.511719 C 336.605469 155.992188 330.140625 201.03125 304.847656 233.28125 C 296.332031 245.972656 284.382812 256.175781 270.324219 262.542969 L 270.382812 262.355469 C 268.710938 263.261719 267.007812 264.128906 265.269531 264.957031 C 267.007812 264.128906 268.710938 263.261719 270.382812 262.355469 C 281.335938 227.203125 277.328125 196.246094 268.792969 171.976562 C 269.390625 177.074219 269.699219 182.230469 269.699219 187.4375 C 269.699219 219.75 257.929688 249.367188 238.460938 272.230469 C 238.160156 272.585938 237.851562 272.933594 237.542969 273.28125 C 237.011719 273.898438 236.472656 274.507812 235.929688 275.113281 C 235.570312 275.511719 235.203125 275.90625 234.84375 276.300781 C 234.292969 276.890625 233.734375 277.480469 233.175781 278.0625 C 232.855469 278.402344 232.535156 278.738281 232.207031 279.074219 C 231.367188 279.933594 230.511719 280.777344 229.648438 281.613281 C 229.351562 281.90625 229.039062 282.1875 228.738281 282.476562 C 228.101562 283.082031 227.457031 283.679688 226.808594 284.269531 C 226.460938 284.589844 226.109375 284.902344 225.757812 285.21875 C 225.054688 285.84375 224.34375 286.460938 223.628906 287.070312 C 223.371094 287.296875 223.113281 287.523438 222.851562 287.742188 C 221.898438 288.542969 220.929688 289.332031 219.957031 290.105469 C 219.660156 290.339844 219.363281 290.566406 219.066406 290.796875 C 218.320312 291.375 217.574219 291.945312 216.820312 292.507812 C 216.488281 292.757812 216.15625 293.003906 215.824219 293.246094 C 214.933594 293.898438 214.03125 294.542969 213.121094 295.175781 C 212.96875 295.277344 212.824219 295.382812 212.671875 295.488281 C 211.617188 296.210938 210.546875 296.921875 209.46875 297.613281 C 209.164062 297.808594 208.863281 298 208.554688 298.195312 C 207.730469 298.714844 206.898438 299.230469 206.058594 299.734375 C 205.738281 299.929688 205.417969 300.121094 205.09375 300.3125 C 203.980469 300.972656 202.859375 301.621094 201.722656 302.246094 C 212.679688 305.546875 224.300781 307.328125 236.335938 307.328125 C 302.5625 307.328125 356.25 253.652344 356.25 187.4375 C 356.25 140.527344 329.300781 99.921875 290.042969 80.222656 C 301.355469 89.976562 310.882812 102.171875 317.738281 116.511719 " fill-opacity="1" fill-rule="nonzero"/></g></svg>